<svg width="155" height="28" viewBox="0 0 155 28" fill="none" xmlns="http://www.w3.org/2000/svg">
<path d="M15.9587 14.6958C17.3029 12.2346 16.4138 9.12028 13.9728 7.73972C11.5318 6.35916 8.46325 7.23519 7.11901 9.69638L2.43391 18.2744C1.08967 20.7356 1.97877 23.85 4.41978 25.2305C6.86078 26.6111 9.92933 25.7351 11.2736 23.2739L15.9587 14.6958Z" fill="#2F0BBE"/>
<path d="M33.5803 9.45585C34.9245 6.99465 34.0354 3.88029 31.5944 2.49973C29.1534 1.11917 26.0848 1.9952 24.7406 4.45639L17.326 18.0318C15.9818 20.493 16.8709 23.6074 19.3119 24.9879C21.7529 26.3685 24.8215 25.4925 26.1657 23.0313L33.5803 9.45585Z" fill="#2F0BBE"/>
<path opacity="0.5" d="M42.426 23.2755C43.7702 20.8143 42.8811 17.7 40.4401 16.3194C37.9991 14.9389 34.9305 15.8149 33.5863 18.2761L33.5412 18.3586C32.197 20.8198 33.0861 23.9341 35.5271 25.3147C37.9681 26.6953 41.0367 25.8192 42.3809 23.358L42.426 23.2755Z" fill="#2F0BBE"/>
<path d="M54.945 19V8.545H58.515C59.705 8.545 60.6 8.8 61.2 9.31C61.81 9.81 62.115 10.57 62.115 11.59C62.115 12.62 61.805 13.405 61.185 13.945C60.575 14.475 59.685 14.74 58.515 14.74H57.075V19H54.945ZM57.075 12.82H58.29C58.82 12.82 59.23 12.735 59.52 12.565C59.81 12.395 59.955 12.08 59.955 11.62C59.955 11.18 59.815 10.88 59.535 10.72C59.265 10.55 58.85 10.465 58.29 10.465H57.075V12.82ZM65.9768 19.15C65.3468 19.15 64.8268 19.03 64.4168 18.79C64.0168 18.54 63.7218 18.195 63.5318 17.755C63.3418 17.305 63.2468 16.785 63.2468 16.195V11.605H65.3018V15.745C65.3018 16.035 65.3318 16.305 65.3918 16.555C65.4618 16.795 65.5868 16.99 65.7668 17.14C65.9568 17.29 66.2368 17.365 66.6068 17.365C67.0568 17.365 67.3818 17.235 67.5818 16.975C67.7918 16.705 67.9268 16.34 67.9868 15.88C68.0468 15.41 68.0768 14.88 68.0768 14.29V11.605H70.1468V19H68.0768V17.395L68.3168 17.59C68.0868 18.17 67.7618 18.575 67.3418 18.805C66.9318 19.035 66.4768 19.15 65.9768 19.15ZM73.6765 19.15C73.1565 19.15 72.7215 18.995 72.3715 18.685C72.0215 18.365 71.8465 17.86 71.8465 17.17V8.545H73.9015V16.765C73.9015 16.945 73.9465 17.075 74.0365 17.155C74.1265 17.225 74.2415 17.26 74.3815 17.26C74.4715 17.26 74.5565 17.25 74.6365 17.23C74.7165 17.21 74.8015 17.19 74.8915 17.17V18.925C74.6715 19.005 74.4565 19.06 74.2465 19.09C74.0365 19.13 73.8465 19.15 73.6765 19.15ZM78.7199 19.15C78.1599 19.15 77.6699 19.07 77.2499 18.91C76.8299 18.75 76.4799 18.555 76.1999 18.325C75.9199 18.085 75.6899 17.865 75.5099 17.665L76.9199 16.435C77.0899 16.685 77.3199 16.925 77.6099 17.155C77.9099 17.385 78.2849 17.5 78.7349 17.5C79.0649 17.5 79.3199 17.435 79.4999 17.305C79.6899 17.175 79.7849 17.025 79.7849 16.855C79.7849 16.695 79.7249 16.57 79.6049 16.48C79.4849 16.38 79.3249 16.295 79.1249 16.225C78.9249 16.155 78.6999 16.085 78.4499 16.015C78.1699 15.945 77.8799 15.86 77.5799 15.76C77.2799 15.65 76.9999 15.51 76.7399 15.34C76.4799 15.17 76.2699 14.955 76.1099 14.695C75.9499 14.425 75.8699 14.09 75.8699 13.69C75.8699 13.02 76.1299 12.48 76.6499 12.07C77.1799 11.66 77.8699 11.455 78.7199 11.455C79.3199 11.455 79.8649 11.57 80.3549 11.8C80.8449 12.03 81.2349 12.365 81.5249 12.805L80.2499 13.81C80.0699 13.55 79.8399 13.35 79.5599 13.21C79.2799 13.06 78.9849 12.985 78.6749 12.985C78.4149 12.985 78.1999 13.035 78.0299 13.135C77.8699 13.225 77.7899 13.345 77.7899 13.495C77.7899 13.605 77.8299 13.7 77.9099 13.78C77.9899 13.85 78.1199 13.915 78.2999 13.975C78.4799 14.035 78.7249 14.105 79.0349 14.185C79.3249 14.255 79.6299 14.34 79.9499 14.44C80.2699 14.54 80.5699 14.68 80.8499 14.86C81.1399 15.03 81.3699 15.26 81.5399 15.55C81.7199 15.83 81.8099 16.185 81.8099 16.615C81.8099 17.115 81.6799 17.56 81.4199 17.95C81.1699 18.33 80.8099 18.625 80.3399 18.835C79.8799 19.045 79.3399 19.15 78.7199 19.15ZM86.5601 19.15C85.9001 19.15 85.3301 19.045 84.8501 18.835C84.3801 18.625 83.9951 18.34 83.6951 17.98C83.4051 17.62 83.1901 17.215 83.0501 16.765C82.9201 16.305 82.8551 15.83 82.8551 15.34C82.8551 14.87 82.9201 14.405 83.0501 13.945C83.1901 13.485 83.4001 13.07 83.6801 12.7C83.9601 12.32 84.3301 12.02 84.7901 11.8C85.2501 11.57 85.8001 11.455 86.4401 11.455C87.0101 11.455 87.5101 11.555 87.9401 11.755C88.3801 11.945 88.7451 12.215 89.0351 12.565C89.3251 12.905 89.5401 13.31 89.6801 13.78C89.8301 14.25 89.9051 14.755 89.9051 15.295C89.9051 15.385 89.9001 15.49 89.8901 15.61C89.8901 15.73 89.8801 15.865 89.8601 16.015H84.9101C84.9701 16.475 85.1651 16.82 85.4951 17.05C85.8251 17.27 86.2201 17.38 86.6801 17.38C87.0501 17.38 87.4201 17.315 87.7901 17.185C88.1601 17.055 88.4851 16.87 88.7651 16.63L89.7101 18.07C89.3401 18.33 88.9951 18.54 88.6751 18.7C88.3651 18.86 88.0401 18.975 87.7001 19.045C87.3701 19.115 86.9901 19.15 86.5601 19.15ZM87.8801 14.98C87.9001 14.9 87.9151 14.82 87.9251 14.74C87.9451 14.66 87.9551 14.585 87.9551 14.515C87.9551 14.315 87.9151 14.135 87.8351 13.975C87.7651 13.805 87.6651 13.66 87.5351 13.54C87.4051 13.42 87.2501 13.33 87.0701 13.27C86.8901 13.2 86.6901 13.165 86.4701 13.165C86.1201 13.165 85.8301 13.235 85.6001 13.375C85.3801 13.505 85.2101 13.67 85.0901 13.87C84.9801 14.07 84.9101 14.275 84.8801 14.485H88.5701L87.8801 14.98ZM94.4314 19L98.7064 8.545H100.296L104.571 19H102.231L99.5164 11.725L96.7714 19H94.4314ZM97.3714 17.095L98.0464 15.175H100.971L101.661 17.095H97.3714ZM105.51 19V11.605H107.58V13.615L107.295 13.63C107.325 13.21 107.445 12.835 107.655 12.505C107.875 12.175 108.15 11.92 108.48 11.74C108.81 11.55 109.15 11.455 109.5 11.455C109.75 11.455 109.99 11.49 110.22 11.56C110.45 11.63 110.695 11.745 110.955 11.905L109.965 13.765C109.855 13.695 109.71 13.635 109.53 13.585C109.36 13.525 109.185 13.495 109.005 13.495C108.825 13.495 108.65 13.53 108.48 13.6C108.31 13.67 108.16 13.775 108.03 13.915C107.9 14.045 107.795 14.22 107.715 14.44C107.665 14.58 107.625 14.76 107.595 14.98C107.575 15.19 107.565 15.505 107.565 15.925V19H105.51ZM114.918 19.15C114.298 19.15 113.758 19.045 113.298 18.835C112.848 18.615 112.468 18.325 112.158 17.965C111.858 17.595 111.633 17.18 111.483 16.72C111.333 16.26 111.258 15.785 111.258 15.295C111.258 14.805 111.333 14.33 111.483 13.87C111.633 13.41 111.858 13 112.158 12.64C112.468 12.28 112.848 11.995 113.298 11.785C113.758 11.565 114.298 11.455 114.918 11.455C115.678 11.455 116.338 11.635 116.898 11.995C117.458 12.355 117.878 12.91 118.158 13.66L116.358 14.38C116.248 14.04 116.078 13.765 115.848 13.555C115.628 13.345 115.318 13.24 114.918 13.24C114.538 13.24 114.228 13.34 113.988 13.54C113.758 13.74 113.588 14 113.478 14.32C113.368 14.63 113.313 14.955 113.313 15.295C113.313 15.635 113.368 15.965 113.478 16.285C113.588 16.605 113.758 16.865 113.988 17.065C114.228 17.265 114.538 17.365 114.918 17.365C115.318 17.365 115.628 17.26 115.848 17.05C116.078 16.84 116.248 16.565 116.358 16.225L118.158 16.945C117.878 17.685 117.458 18.24 116.898 18.61C116.338 18.97 115.678 19.15 114.918 19.15ZM119.47 19V8.545H121.525V13.315L121.225 13.33C121.355 12.86 121.545 12.49 121.795 12.22C122.055 11.94 122.35 11.745 122.68 11.635C123.01 11.515 123.34 11.455 123.67 11.455C124.52 11.455 125.18 11.695 125.65 12.175C126.13 12.645 126.37 13.295 126.37 14.125V19H124.3V14.89C124.3 14.32 124.195 13.905 123.985 13.645C123.785 13.375 123.465 13.24 123.025 13.24C122.525 13.24 122.15 13.425 121.9 13.795C121.65 14.155 121.525 14.725 121.525 15.505V19H119.47ZM128.009 19V11.605H130.064V19H128.009ZM127.979 10.525V8.545H130.124V10.525H127.979ZM134.144 19L131.129 11.605H133.379L134.984 16.315L136.619 11.605H138.839L135.824 19H134.144ZM142.971 19.15C142.311 19.15 141.741 19.045 141.261 18.835C140.791 18.625 140.406 18.34 140.106 17.98C139.816 17.62 139.601 17.215 139.461 16.765C139.331 16.305 139.266 15.83 139.266 15.34C139.266 14.87 139.331 14.405 139.461 13.945C139.601 13.485 139.811 13.07 140.091 12.7C140.371 12.32 140.741 12.02 141.201 11.8C141.661 11.57 142.211 11.455 142.851 11.455C143.421 11.455 143.921 11.555 144.351 11.755C144.791 11.945 145.156 12.215 145.446 12.565C145.736 12.905 145.951 13.31 146.091 13.78C146.241 14.25 146.316 14.755 146.316 15.295C146.316 15.385 146.311 15.49 146.301 15.61C146.301 15.73 146.291 15.865 146.271 16.015H141.321C141.381 16.475 141.576 16.82 141.906 17.05C142.236 17.27 142.631 17.38 143.091 17.38C143.461 17.38 143.831 17.315 144.201 17.185C144.571 17.055 144.896 16.87 145.176 16.63L146.121 18.07C145.751 18.33 145.406 18.54 145.086 18.7C144.776 18.86 144.451 18.975 144.111 19.045C143.781 19.115 143.401 19.15 142.971 19.15ZM144.291 14.98C144.311 14.9 144.326 14.82 144.336 14.74C144.356 14.66 144.366 14.585 144.366 14.515C144.366 14.315 144.326 14.135 144.246 13.975C144.176 13.805 144.076 13.66 143.946 13.54C143.816 13.42 143.661 13.33 143.481 13.27C143.301 13.2 143.101 13.165 142.881 13.165C142.531 13.165 142.241 13.235 142.011 13.375C141.791 13.505 141.621 13.67 141.501 13.87C141.391 14.07 141.321 14.275 141.291 14.485H144.981L144.291 14.98Z" fill="#2F0BBE"/>
</svg>
