<svg width="99" height="19" viewBox="0 0 99 19" fill="none" xmlns="http://www.w3.org/2000/svg">
<g clip-path="url(#clip0_2_213)">
<path d="M3.945 14V3.545H7.515C8.705 3.545 9.6 3.8 10.2 4.31C10.81 4.81 11.115 5.57 11.115 6.59C11.115 7.62 10.805 8.405 10.185 8.945C9.575 9.475 8.685 9.74 7.515 9.74H6.075V14H3.945ZM6.075 7.82H7.29C7.82 7.82 8.23 7.735 8.52 7.565C8.81 7.395 8.955 7.08 8.955 6.62C8.955 6.18 8.815 5.88 8.535 5.72C8.265 5.55 7.85 5.465 7.29 5.465H6.075V7.82ZM14.9768 14.15C14.3468 14.15 13.8268 14.03 13.4168 13.79C13.0168 13.54 12.7218 13.195 12.5318 12.755C12.3418 12.305 12.2468 11.785 12.2468 11.195V6.605H14.3018V10.745C14.3018 11.035 14.3318 11.305 14.3918 11.555C14.4618 11.795 14.5868 11.99 14.7668 12.14C14.9568 12.29 15.2368 12.365 15.6068 12.365C16.0568 12.365 16.3818 12.235 16.5818 11.975C16.7918 11.705 16.9268 11.34 16.9868 10.88C17.0468 10.41 17.0768 9.88 17.0768 9.29V6.605H19.1468V14H17.0768V12.395L17.3168 12.59C17.0868 13.17 16.7618 13.575 16.3418 13.805C15.9318 14.035 15.4768 14.15 14.9768 14.15ZM22.6765 14.15C22.1565 14.15 21.7215 13.995 21.3715 13.685C21.0215 13.365 20.8465 12.86 20.8465 12.17V3.545H22.9015V11.765C22.9015 11.945 22.9465 12.075 23.0365 12.155C23.1265 12.225 23.2415 12.26 23.3815 12.26C23.4715 12.26 23.5565 12.25 23.6365 12.23C23.7165 12.21 23.8015 12.19 23.8915 12.17V13.925C23.6715 14.005 23.4565 14.06 23.2465 14.09C23.0365 14.13 22.8465 14.15 22.6765 14.15ZM27.7199 14.15C27.1599 14.15 26.6699 14.07 26.2499 13.91C25.8299 13.75 25.4799 13.555 25.1999 13.325C24.9199 13.085 24.6899 12.865 24.5099 12.665L25.9199 11.435C26.0899 11.685 26.3199 11.925 26.6099 12.155C26.9099 12.385 27.2849 12.5 27.7349 12.5C28.0649 12.5 28.3199 12.435 28.4999 12.305C28.6899 12.175 28.7849 12.025 28.7849 11.855C28.7849 11.695 28.7249 11.57 28.6049 11.48C28.4849 11.38 28.3249 11.295 28.1249 11.225C27.9249 11.155 27.6999 11.085 27.4499 11.015C27.1699 10.945 26.8799 10.86 26.5799 10.76C26.2799 10.65 25.9999 10.51 25.7399 10.34C25.4799 10.17 25.2699 9.955 25.1099 9.695C24.9499 9.425 24.8699 9.09 24.8699 8.69C24.8699 8.02 25.1299 7.48 25.6499 7.07C26.1799 6.66 26.8699 6.455 27.7199 6.455C28.3199 6.455 28.8649 6.57 29.3549 6.8C29.8449 7.03 30.2349 7.365 30.5249 7.805L29.2499 8.81C29.0699 8.55 28.8399 8.35 28.5599 8.21C28.2799 8.06 27.9849 7.985 27.6749 7.985C27.4149 7.985 27.1999 8.035 27.0299 8.135C26.8699 8.225 26.7899 8.345 26.7899 8.495C26.7899 8.605 26.8299 8.7 26.9099 8.78C26.9899 8.85 27.1199 8.915 27.2999 8.975C27.4799 9.035 27.7249 9.105 28.0349 9.185C28.3249 9.255 28.6299 9.34 28.9499 9.44C29.2699 9.54 29.5699 9.68 29.8499 9.86C30.1399 10.03 30.3699 10.26 30.5399 10.55C30.7199 10.83 30.8099 11.185 30.8099 11.615C30.8099 12.115 30.6799 12.56 30.4199 12.95C30.1699 13.33 29.8099 13.625 29.3399 13.835C28.8799 14.045 28.3399 14.15 27.7199 14.15ZM35.5601 14.15C34.9001 14.15 34.3301 14.045 33.8501 13.835C33.3801 13.625 32.9951 13.34 32.6951 12.98C32.4051 12.62 32.1901 12.215 32.0501 11.765C31.9201 11.305 31.8551 10.83 31.8551 10.34C31.8551 9.87 31.9201 9.405 32.0501 8.945C32.1901 8.485 32.4001 8.07 32.6801 7.7C32.9601 7.32 33.3301 7.02 33.7901 6.8C34.2501 6.57 34.8001 6.455 35.4401 6.455C36.0101 6.455 36.5101 6.555 36.9401 6.755C37.3801 6.945 37.7451 7.215 38.0351 7.565C38.3251 7.905 38.5401 8.31 38.6801 8.78C38.8301 9.25 38.9051 9.755 38.9051 10.295C38.9051 10.385 38.9001 10.49 38.8901 10.61C38.8901 10.73 38.8801 10.865 38.8601 11.015H33.9101C33.9701 11.475 34.1651 11.82 34.4951 12.05C34.8251 12.27 35.2201 12.38 35.6801 12.38C36.0501 12.38 36.4201 12.315 36.7901 12.185C37.1601 12.055 37.4851 11.87 37.7651 11.63L38.7101 13.07C38.3401 13.33 37.9951 13.54 37.6751 13.7C37.3651 13.86 37.0401 13.975 36.7001 14.045C36.3701 14.115 35.9901 14.15 35.5601 14.15ZM36.8801 9.98C36.9001 9.9 36.9151 9.82 36.9251 9.74C36.9451 9.66 36.9551 9.585 36.9551 9.515C36.9551 9.315 36.9151 9.135 36.8351 8.975C36.7651 8.805 36.6651 8.66 36.5351 8.54C36.4051 8.42 36.2501 8.33 36.0701 8.27C35.8901 8.2 35.6901 8.165 35.4701 8.165C35.1201 8.165 34.8301 8.235 34.6001 8.375C34.3801 8.505 34.2101 8.67 34.0901 8.87C33.9801 9.07 33.9101 9.275 33.8801 9.485H37.5701L36.8801 9.98ZM43.4314 14L47.7064 3.545H49.2964L53.5714 14H51.2314L48.5164 6.725L45.7714 14H43.4314ZM46.3714 12.095L47.0464 10.175H49.9714L50.6614 12.095H46.3714ZM54.5096 14V6.605H56.5796V8.615L56.2946 8.63C56.3246 8.21 56.4446 7.835 56.6546 7.505C56.8746 7.175 57.1496 6.92 57.4796 6.74C57.8096 6.55 58.1496 6.455 58.4996 6.455C58.7496 6.455 58.9896 6.49 59.2196 6.56C59.4496 6.63 59.6946 6.745 59.9546 6.905L58.9646 8.765C58.8546 8.695 58.7096 8.635 58.5296 8.585C58.3596 8.525 58.1846 8.495 58.0046 8.495C57.8246 8.495 57.6496 8.53 57.4796 8.6C57.3096 8.67 57.1596 8.775 57.0296 8.915C56.8996 9.045 56.7946 9.22 56.7146 9.44C56.6646 9.58 56.6246 9.76 56.5946 9.98C56.5746 10.19 56.5646 10.505 56.5646 10.925V14H54.5096ZM63.9184 14.15C63.2984 14.15 62.7584 14.045 62.2984 13.835C61.8484 13.615 61.4684 13.325 61.1584 12.965C60.8584 12.595 60.6334 12.18 60.4834 11.72C60.3334 11.26 60.2584 10.785 60.2584 10.295C60.2584 9.805 60.3334 9.33 60.4834 8.87C60.6334 8.41 60.8584 8 61.1584 7.64C61.4684 7.28 61.8484 6.995 62.2984 6.785C62.7584 6.565 63.2984 6.455 63.9184 6.455C64.6784 6.455 65.3384 6.635 65.8984 6.995C66.4584 7.355 66.8784 7.91 67.1584 8.66L65.3584 9.38C65.2484 9.04 65.0784 8.765 64.8484 8.555C64.6284 8.345 64.3184 8.24 63.9184 8.24C63.5384 8.24 63.2284 8.34 62.9884 8.54C62.7584 8.74 62.5884 9 62.4784 9.32C62.3684 9.63 62.3134 9.955 62.3134 10.295C62.3134 10.635 62.3684 10.965 62.4784 11.285C62.5884 11.605 62.7584 11.865 62.9884 12.065C63.2284 12.265 63.5384 12.365 63.9184 12.365C64.3184 12.365 64.6284 12.26 64.8484 12.05C65.0784 11.84 65.2484 11.565 65.3584 11.225L67.1584 11.945C66.8784 12.685 66.4584 13.24 65.8984 13.61C65.3384 13.97 64.6784 14.15 63.9184 14.15ZM68.4696 14V3.545H70.5246V8.315L70.2246 8.33C70.3546 7.86 70.5446 7.49 70.7946 7.22C71.0546 6.94 71.3496 6.745 71.6796 6.635C72.0096 6.515 72.3396 6.455 72.6696 6.455C73.5196 6.455 74.1796 6.695 74.6496 7.175C75.1296 7.645 75.3696 8.295 75.3696 9.125V14H73.2996V9.89C73.2996 9.32 73.1946 8.905 72.9846 8.645C72.7846 8.375 72.4646 8.24 72.0246 8.24C71.5246 8.24 71.1496 8.425 70.8996 8.795C70.6496 9.155 70.5246 9.725 70.5246 10.505V14H68.4696ZM77.0093 14V6.605H79.0643V14H77.0093ZM76.9793 5.525V3.545H79.1243V5.525H76.9793ZM83.1436 14L80.1286 6.605H82.3786L83.9836 11.315L85.6186 6.605H87.8386L84.8236 14H83.1436ZM91.9712 14.15C91.3112 14.15 90.7412 14.045 90.2612 13.835C89.7912 13.625 89.4062 13.34 89.1062 12.98C88.8162 12.62 88.6012 12.215 88.4612 11.765C88.3312 11.305 88.2662 10.83 88.2662 10.34C88.2662 9.87 88.3312 9.405 88.4612 8.945C88.6012 8.485 88.8112 8.07 89.0912 7.7C89.3712 7.32 89.7412 7.02 90.2012 6.8C90.6612 6.57 91.2112 6.455 91.8512 6.455C92.4212 6.455 92.9212 6.555 93.3512 6.755C93.7912 6.945 94.1562 7.215 94.4462 7.565C94.7362 7.905 94.9512 8.31 95.0912 8.78C95.2412 9.25 95.3162 9.755 95.3162 10.295C95.3162 10.385 95.3112 10.49 95.3012 10.61C95.3012 10.73 95.2912 10.865 95.2712 11.015H90.3212C90.3812 11.475 90.5762 11.82 90.9062 12.05C91.2362 12.27 91.6312 12.38 92.0912 12.38C92.4612 12.38 92.8312 12.315 93.2012 12.185C93.5712 12.055 93.8962 11.87 94.1762 11.63L95.1212 13.07C94.7512 13.33 94.4062 13.54 94.0862 13.7C93.7762 13.86 93.4512 13.975 93.1112 14.045C92.7812 14.115 92.4012 14.15 91.9712 14.15ZM93.2912 9.98C93.3112 9.9 93.3262 9.82 93.3362 9.74C93.3562 9.66 93.3662 9.585 93.3662 9.515C93.3662 9.315 93.3262 9.135 93.2462 8.975C93.1762 8.805 93.0762 8.66 92.9462 8.54C92.8162 8.42 92.6612 8.33 92.4812 8.27C92.3012 8.2 92.1012 8.165 91.8812 8.165C91.5312 8.165 91.2412 8.235 91.0112 8.375C90.7912 8.505 90.6212 8.67 90.5012 8.87C90.3912 9.07 90.3212 9.275 90.2912 9.485H93.9812L93.2912 9.98Z" fill="black"/>
</g>
<defs>
<clipPath id="clip0_2_213">
<rect width="99" height="19" fill="white"/>
</clipPath>
</defs>
</svg>
